<?xml version="1.0" encoding="UTF-8" standalone="no"?>
<svg
   xmlns:dc="http://purl.org/dc/elements/1.1/"
   xmlns:cc="http://creativecommons.org/ns#"
   xmlns:rdf="http://www.w3.org/1999/02/22-rdf-syntax-ns#"
   xmlns:svg="http://www.w3.org/2000/svg"
   xmlns="http://www.w3.org/2000/svg"
   xmlns:xlink="http://www.w3.org/1999/xlink"
   id="svg8"
   version="1.1"
   viewBox="0 0 423.33332 127.00001"
   height="480"
   width="1600">
  <defs
     id="defs2">
    <linearGradient
       id="linearGradient855">
      <stop
         style="stop-color:#5f6c77;stop-opacity:1"
         offset="0"
         id="stop851" />
      <stop
         style="stop-color:#65707f;stop-opacity:1"
         offset="1"
         id="stop853" />
    </linearGradient>
    <linearGradient
       id="linearGradient845">
      <stop
         style="stop-color:#464e58;stop-opacity:1"
         offset="0"
         id="stop841" />
      <stop
         style="stop-color:#56606d;stop-opacity:1"
         offset="1"
         id="stop843" />
    </linearGradient>
    <radialGradient
       xlink:href="#linearGradient845"
       id="radialGradient849"
       cx="140.00102"
       cy="-169.98651"
       fx="140.00102"
       fy="-169.98651"
       r="772.12793"
       gradientTransform="matrix(1.7484582,0.84751664,-0.34454602,0.71081133,-149.25016,61.08442)"
       gradientUnits="userSpaceOnUse" />
    <radialGradient
       xlink:href="#linearGradient855"
       id="radialGradient857"
       cx="215.48653"
       cy="11.400758"
       fx="215.48653"
       fy="11.400758"
       r="211.66667"
       gradientTransform="matrix(1.4349604,0.70232851,-0.37049598,0.75697769,-60.99247,-82.874073)"
       gradientUnits="userSpaceOnUse" />
    <filter
       style="color-interpolation-filters:sRGB"
       id="filter1444">
      <feFlood
         flood-opacity="0.498039"
         flood-color="rgb(0,0,0)"
         result="flood"
         id="feFlood1434" />
      <feComposite
         in="flood"
         in2="SourceGraphic"
         operator="in"
         result="composite1"
         id="feComposite1436" />
      <feGaussianBlur
         in="composite1"
         stdDeviation="3"
         result="blur"
         id="feGaussianBlur1438" />
      <feOffset
         dx="6"
         dy="6"
         result="offset"
         id="feOffset1440" />
      <feComposite
         in="SourceGraphic"
         in2="offset"
         operator="over"
         result="composite2"
         id="feComposite1442" />
    </filter>
    <filter
       style="color-interpolation-filters:sRGB"
       id="filter1456">
      <feFlood
         flood-opacity="0.498039"
         flood-color="rgb(0,0,0)"
         result="flood"
         id="feFlood1446" />
      <feComposite
         in="flood"
         in2="SourceGraphic"
         operator="in"
         result="composite1"
         id="feComposite1448" />
      <feGaussianBlur
         in="composite1"
         stdDeviation="3"
         result="blur"
         id="feGaussianBlur1450" />
      <feOffset
         dx="6"
         dy="6"
         result="offset"
         id="feOffset1452" />
      <feComposite
         in="SourceGraphic"
         in2="offset"
         operator="over"
         result="composite2"
         id="feComposite1454" />
    </filter>
  </defs>
  <metadata
     id="metadata5">
    <rdf:RDF>
      <cc:Work
         rdf:about="">
        <dc:format>image/svg+xml</dc:format>
        <dc:type
           rdf:resource="http://purl.org/dc/dcmitype/StillImage" />
        <dc:title></dc:title>
      </cc:Work>
    </rdf:RDF>
  </metadata>
  <rect
     y="-1.7763568e-15"
     x="0"
     height="127"
     width="423.33334"
     id="rect1546"
     style="display:inline;fill:url(#radialGradient857);fill-opacity:1;stroke:none;stroke-width:2.95171;stroke-linejoin:round" />
  <g
     id="layer1">
    <path
       id="path1660"
       d="M -7.3672038,104.5524 C 48.105318,89.449391 48.638617,89.399115 48.638617,89.399115 l 9.134277,0.991478 21.756236,-10.773815 14.672223,9.167032 8.204047,-6.166855 34.59843,-2.612094 21.82664,-9.856721 34.40756,-8.012769 33.52947,3.466428 15.58705,-12.128546 37.55581,-4.38781 33.8903,-14.089904 21.83786,4.59567 12.57779,-6.814672 25.03329,-9.691555 12.9618,-13.7411679 15.23749,-3.3680139 12.04605,-10.0887723 5.05998,0.4227962 -13.28336,9.5450491 -3.63736,2.9958853 -14.13134,2.5645245 -7.79375,7.574965 -3.97005,6.447763 -12.98604,3.685053 -12.42687,5.652024 -8.96202,3.903107 -6.14013,4.09829 -21.41752,-6.078408 -12.22179,5.526887 -19.97121,8.43108 -19.69567,3.498533 -19.44536,4.084537 -10.17803,4.934471 -4.63709,5.548061 -21.7899,-2.77832 -13.08101,-1.209305 -32.71161,7.94158 -7.47343,4.208859 -15.97425,6.115209 -19.98166,0.214792 -14.66896,3.970105 -7.312459,3.765655 -11.089273,-3.061692 -4.21106,-5.821169 -14.258595,6.869123 -6.593322,4.497808 -8.70427,-2.030605 -26.819154,7.459027 -16.440926,7.483797 z"
       style="display:inline;fill:#768193;fill-opacity:1;stroke:none;stroke-width:0.264583px;stroke-linecap:butt;stroke-linejoin:miter;stroke-opacity:1" />
    <path
       transform="scale(0.26458334)"
       d="m 0,0 v 387.58984 c 175.86093,-47.84356 183.83008,-49.70312 183.83008,-49.70312 l 34.52344,3.74609 82.22851,-40.71875 55.45508,34.64649 31.00781,-23.30664 130.76563,-9.87305 82.49414,-37.25391 130.04297,-30.28515 126.72656,13.10156 58.91211,-45.83984 141.94337,-16.58399 128.0879,-53.25391 82.5371,17.3711 47.5391,-25.75781 L 1410.707,87.25 1459.6973,35.314453 1517.2871,22.585938 1544.2559,0 Z"
       style="display:inline;fill:url(#radialGradient849);fill-opacity:1;stroke:none;stroke-width:11.1561;stroke-linejoin:round"
       id="rect1662" />
  </g>
</svg>
